<svg width="46" height="46" viewBox="0 0 46 46" fill="none" xmlns="http://www.w3.org/2000/svg">
<g id="7830797_mood_happy_icon 1" clip-path="url(#clip0_10_390)">
<path id="Vector" d="M5.75352 32.1464L5.80884 32.0301L5.74627 31.9176C3.94157 28.6711 3.01668 25.0093 3.06326 21.2952C3.10984 17.5812 4.12628 13.9437 6.01182 10.7435C7.89737 7.54333 10.5865 4.89148 13.8128 3.05084C17.039 1.2102 20.6903 0.244694 24.4046 0.250022L24.4052 0.250022C27.6624 0.247981 30.8769 0.99177 33.8023 2.42438C36.7276 3.85698 39.286 5.94037 41.2815 8.51483C43.277 11.0893 44.6566 14.0865 45.3144 17.2766C45.9722 20.4668 45.8909 23.7652 45.0766 26.9191C44.2624 30.0729 42.7368 32.9985 40.6168 35.4715C38.4969 37.9444 35.8388 39.8992 32.8465 41.1859C29.8541 42.4726 26.6068 43.057 23.3536 42.8944C20.1004 42.7318 16.9276 41.8265 14.0784 40.2479L13.9659 40.1856L13.8498 40.2409L2.63447 45.5822C2.63427 45.5822 2.63408 45.5823 2.63389 45.5824C2.32345 45.7284 1.97554 45.775 1.63762 45.7159C1.29949 45.6568 0.987868 45.4947 0.745328 45.2518C0.50279 45.0089 0.341167 44.697 0.282544 44.3588C0.223941 44.0207 0.271126 43.6728 0.417652 43.3625C0.417701 43.3624 0.41775 43.3623 0.417799 43.3622L5.75352 32.1464ZM24.4046 39.6011H24.4048C28.3901 39.6044 32.2618 38.2847 35.4162 35.8491C38.5706 33.4135 40.8274 29.9998 41.8324 26.1433C42.8375 22.2868 42.5341 18.2058 40.9697 14.5404C39.4053 10.875 36.6685 7.83256 33.1886 5.89027C29.7086 3.94797 25.6824 3.21573 21.7414 3.80839C17.8005 4.40105 14.1677 6.28509 11.4129 9.16498C8.65819 12.0449 6.93728 15.7577 6.52016 19.7211C6.10304 23.6845 7.0133 27.6742 9.10817 31.0645L9.10859 31.0652C9.25624 31.3025 9.34187 31.573 9.3576 31.852C9.37333 32.131 9.31865 32.4095 9.19859 32.6619L6.32363 38.6993L6.32345 38.6997C6.259 38.8356 6.23817 38.9881 6.26382 39.1364C6.28946 39.2846 6.36034 39.4213 6.46671 39.5277C6.57309 39.634 6.70976 39.7049 6.85799 39.7305L6.90062 39.4842L6.858 39.7306C7.00623 39.7562 7.15877 39.7354 7.2947 39.6709L7.29508 39.6707L13.3326 36.7957L13.3332 36.7954C13.5851 36.6747 13.8634 36.6191 14.1424 36.634C14.4214 36.6488 14.6922 36.7336 14.9298 36.8805C17.7727 38.6529 21.0544 39.5953 24.4046 39.6011Z" fill="black" stroke="white" stroke-width="0.5"/>
<path id="Vector_2" d="M15.3334 21.0814C16.9212 21.0814 18.2084 19.7942 18.2084 18.2064C18.2084 16.6186 16.9212 15.3314 15.3334 15.3314C13.7456 15.3314 12.4584 16.6186 12.4584 18.2064C12.4584 19.7942 13.7456 21.0814 15.3334 21.0814Z" fill="#FEB804"/>
<path id="Vector_3" d="M33.5416 21.0814C35.1294 21.0814 36.4166 19.7942 36.4166 18.2064C36.4166 16.6186 35.1294 15.3314 33.5416 15.3314C31.9538 15.3314 30.6666 16.6186 30.6666 18.2064C30.6666 19.7942 31.9538 21.0814 33.5416 21.0814Z" fill="#FEB804"/>
<path id="Vector_4" d="M29.2291 23.9871H19.7091C19.4549 23.9871 19.2111 24.088 19.0314 24.2677C18.8517 24.4475 18.7507 24.6912 18.7507 24.9454C18.7782 26.4439 19.3927 27.8717 20.4621 28.9217C21.5315 29.9717 22.9704 30.56 24.4691 30.56C25.9678 30.56 27.4067 29.9717 28.4761 28.9217C29.5455 27.8717 30.16 26.4439 30.1875 24.9454C30.1875 24.6912 30.0865 24.4475 29.9068 24.2677C29.7271 24.088 29.4833 23.9871 29.2291 23.9871Z" fill="black"/>
</g>
<defs>
<clipPath id="clip0_10_390">
<rect width="46" height="46" fill="white"/>
</clipPath>
</defs>
</svg>
