<svg width="65" height="65" viewBox="0 0 65 65" fill="none" xmlns="http://www.w3.org/2000/svg">
<g id="5968319_doctor_healthcare_heartbeat_hospital_medical_icon 1">
<path id="Vector" d="M49.1637 32.0864L47.2728 30.5278C48.6504 28.8662 49.4076 26.7773 49.4148 24.6188C49.4149 22.7578 48.8445 20.9415 47.7804 19.4148C46.7164 17.8881 45.2098 16.7243 43.4638 16.0803C41.7178 15.4363 39.8164 15.3431 38.0158 15.8133C36.2152 16.2834 34.602 17.2943 33.3938 18.7097L32.5 19.8546L31.5767 18.7466C30.3685 17.3312 28.7553 16.3204 26.9547 15.8502C25.1541 15.3801 23.2527 15.4733 21.5067 16.1172C19.7607 16.7612 18.2541 17.925 17.1901 19.4517C16.126 20.9785 15.5556 22.7947 15.5557 24.6557C15.5629 26.8142 16.3201 28.9031 17.6977 30.5648L15.8364 32.1233C13.9152 29.8825 12.9272 26.9899 13.0761 24.0421C13.225 21.0942 14.4994 18.3159 16.6366 16.2801C18.7738 14.2442 21.6107 13.1062 24.5623 13.1006C27.5139 13.095 30.3551 14.2223 32.5 16.25C34.6578 14.3116 37.4668 13.2576 40.3671 13.2983C43.2674 13.339 46.0458 14.4713 48.1484 16.4694C50.2509 18.4676 51.5231 21.1848 51.7113 24.0793C51.8995 26.9737 50.9898 29.8328 49.1637 32.0864Z" fill="#040404"/>
<path id="Vector_2" d="M31.4807 41.6738L27.4625 32.9727L25.9852 36.1267H13.1403V33.704H24.4636L27.4551 27.1818L31.2074 35.3068L36.0824 21.6199L40.5585 33.7335H51.8597V36.1562H38.867L36.1341 28.7182L31.4807 41.6738Z" fill="#FEB804"/>
<path id="Vector_3" d="M34.2653 51.8597H30.7347L20.6818 39.9529L22.5284 38.4091L31.85 49.4887H33.15L42.4568 38.4091L44.3182 39.9529L34.2653 51.8597Z" fill="#040404"/>
</g>
</svg>
