<svg width="41" height="41" viewBox="0 0 41 41" fill="none" xmlns="http://www.w3.org/2000/svg">
<g id="185038_home_house_icon 1" clip-path="url(#clip0_10_357)">
<g id="Expanded">
<g id="Group">
<g id="Group_2">
<path id="Vector" d="M35.875 41H23.9167V29.8958H17.0833V41H5.125V23.0625C5.125 22.591 5.50681 22.2083 5.97917 22.2083C6.45152 22.2083 6.83333 22.591 6.83333 23.0625V39.2916H15.375V28.1875H25.625V39.2916H34.1667V23.9166C34.1667 23.4451 34.5485 23.0625 35.0208 23.0625C35.4932 23.0625 35.875 23.4451 35.875 23.9166V41Z" fill="black"/>
</g>
<g id="Group_3">
<path id="Vector_2" d="M39.3828 23.0066L39.3831 23.0068C39.5969 23.2107 39.8712 23.3125 40.1458 23.3125C40.4372 23.3125 40.727 23.1975 40.9432 22.9713C41.3652 22.5304 41.3482 21.8317 40.9092 21.4104L40.9089 21.4101L20.6728 2.05384L20.5 1.88854L20.3272 2.05384L0.0902502 21.411L0.0899423 21.4113C-0.349088 21.8326 -0.366128 22.5314 0.0559954 22.9723C0.477984 23.4131 1.17676 23.4271 1.61702 23.0067L1.61717 23.0066L20.5 4.94478L39.3828 23.0066Z" fill="#FEB804" stroke="#FEB804" stroke-width="0.5"/>
</g>
<g id="Group_4">
<path id="Vector_3" d="M33.3125 12.8125C32.8401 12.8125 32.4583 12.4298 32.4583 11.9583V6.83333H27.3333C26.8609 6.83333 26.4791 6.45067 26.4791 5.97917C26.4791 5.50767 26.8609 5.125 27.3333 5.125H34.1666V11.9583C34.1666 12.4298 33.7848 12.8125 33.3125 12.8125Z" fill="black"/>
</g>
</g>
</g>
</g>
<defs>
<clipPath id="clip0_10_357">
<rect width="41" height="41" fill="white"/>
</clipPath>
</defs>
</svg>
