<svg width="38" height="38" viewBox="0 0 38 38" fill="none" xmlns="http://www.w3.org/2000/svg">
<g id="4875797_line_icon 1">
<g id="icons">
<g id="line">
<path id="Vector" d="M14.8438 19.7125C14.8438 20.0688 14.6063 20.3063 14.25 20.3063H11.6375C11.2813 20.3063 11.0438 20.0688 11.0438 19.7125V14.9625C11.0438 14.6063 11.2813 14.3688 11.6375 14.3688C11.9938 14.3688 12.2313 14.6063 12.2313 14.9625V19H14.1313C14.4875 19.1188 14.8438 19.3563 14.8438 19.7125Z" fill="#FEB804"/>
<path id="Vector_2" d="M16.625 14.9625V19.95C16.625 20.1875 16.3875 20.425 16.15 20.425H15.9125C15.675 20.425 15.4375 20.1875 15.4375 19.95V14.9625C15.4375 14.725 15.675 14.4875 15.9125 14.4875H16.15C16.3875 14.3687 16.625 14.6062 16.625 14.9625Z" fill="#FEB804"/>
<path id="Vector_3" d="M22.4438 15.0812V19.7125C22.4438 20.0687 22.2063 20.3062 21.85 20.3062C21.7313 20.3062 21.4938 20.1875 21.375 20.1875L18.7625 16.8625V19.7125C18.7625 20.0687 18.525 20.3062 18.1688 20.3062C17.8125 20.3062 17.575 20.0687 17.575 19.7125V15.0812C17.575 14.725 17.8125 14.4875 18.1688 14.4875C18.4063 14.4875 18.525 14.6062 18.6438 14.725L21.1375 18.05V15.2C21.1375 14.8437 21.375 14.6062 21.7313 14.6062C22.0875 14.6062 22.4438 14.725 22.4438 15.0812Z" fill="#FEB804"/>
<path id="Vector_4" d="M24.5812 15.675V16.7438H26.4812C26.8375 16.7438 27.075 16.9813 27.075 17.3375C27.075 17.6938 26.8375 17.9313 26.4812 17.9313H24.5812V19H26.4812C26.8375 19 27.075 19.2375 27.075 19.5938C27.075 19.95 26.8375 20.1875 26.4812 20.1875H23.9875C23.6312 20.1875 23.3937 19.95 23.3937 19.5938V14.8438C23.3937 14.4875 23.6312 14.25 23.9875 14.25H26.4812C26.8375 14.25 27.075 14.4875 27.075 14.8438C27.075 15.2 26.8375 15.4375 26.4812 15.4375H24.5812V15.675Z" fill="#FEB804"/>
<path id="Vector_5" d="M19 2.375C14.3687 2.375 10.2125 4.275 7.24375 7.24375C4.275 10.2125 2.375 14.3687 2.375 19C2.375 23.6313 4.275 27.7875 7.24375 30.7563C10.2125 33.725 14.3687 35.625 19 35.625C23.6313 35.625 27.7875 33.725 30.7563 30.7563C33.725 27.7875 35.625 23.6313 35.625 19C35.625 9.85625 28.1437 2.375 19 2.375ZM31.1125 18.4062C30.9938 19.3563 30.6375 20.1875 30.1625 21.0188C29.925 21.375 28.8563 22.9188 28.5 23.275C26.7188 25.4125 23.6313 28.025 18.525 30.4C18.1688 30.6375 17.6937 30.2812 17.6937 29.8062L17.9313 27.3125C17.9313 26.9562 17.6938 26.6 17.3375 26.6C11.4 26.0063 6.76875 21.9688 6.76875 16.9812C6.76875 11.6375 12.2312 7.3625 18.8813 7.3625C25.4125 7.3625 30.7563 11.4 30.9937 16.625C30.9937 16.7437 30.9937 17.2188 30.9937 17.575C31.1125 17.8125 31.1125 18.05 31.1125 18.4062Z" fill="#FEB804"/>
</g>
</g>
</g>
</svg>
