<svg width="54" height="54" viewBox="0 0 54 54" fill="none" xmlns="http://www.w3.org/2000/svg">
<g id="3687823_adventure_automotive_car_transport_transportation_icon 1">
<g id="Layer_25">
<g id="Group">
<path id="Vector" d="M44.1281 32.2313C45.6469 32.2313 46.8281 33.4125 46.8281 34.9313C46.8281 36.45 45.6469 37.6313 44.1281 37.6313C42.6094 37.6313 41.4281 36.45 41.4281 34.9313C41.4281 33.4125 42.6094 32.2313 44.1281 32.2313ZM44.1281 35.775C44.6344 35.775 44.9719 35.4375 44.9719 34.9313C44.9719 34.425 44.6344 34.0875 44.1281 34.0875C43.6219 34.0875 43.2844 34.425 43.2844 34.9313C43.2844 35.3531 43.6219 35.775 44.1281 35.775Z" fill="black"/>
<path id="Vector_2" d="M13.2469 32.2313C14.7656 32.2313 15.9469 33.4125 15.9469 34.9313C15.9469 36.45 14.7656 37.6313 13.2469 37.6313C11.7281 37.6313 10.5469 36.45 10.5469 34.9313C10.5469 33.4125 11.7281 32.2313 13.2469 32.2313ZM13.2469 35.775C13.7531 35.775 14.0906 35.4375 14.0906 34.9313C14.0906 34.425 13.7531 34.0875 13.2469 34.0875C12.7406 34.0875 12.4031 34.425 12.4031 34.9313C12.4031 35.3531 12.7406 35.775 13.2469 35.775Z" fill="black"/>
<path id="Vector_3" d="M2.27813 21.0094H2.78437C3.375 17.4656 7.25625 12.9094 12.9094 12.9094H32.0625C37.125 12.9094 41.5125 20.5875 42.6094 22.6969H47.5031C51.1313 22.6969 54 25.65 54 29.1937V33.9187C54 34.9312 53.1562 35.775 52.1437 35.775H50.2031C49.7812 38.7281 47.1656 41.0062 44.1281 41.0062C41.0906 41.0062 38.475 38.7281 38.0531 35.775H19.3219C18.9 38.7281 16.2844 41.0062 13.2469 41.0062C10.2094 41.0062 7.59375 38.7281 7.17188 35.775H4.55625C3.54375 35.775 2.7 34.9312 2.7 33.9187V29.5312H2.27813C1.0125 29.5312 0 28.5187 0 27.2531V23.2875C0 22.0219 1.0125 21.0094 2.27813 21.0094ZM44.1281 39.15C46.4906 39.15 48.4313 37.2094 48.4313 34.8469C48.4313 32.4844 46.4906 30.5437 44.1281 30.5437C41.7656 30.5437 39.825 32.4844 39.825 34.8469C39.825 37.2937 41.7656 39.15 44.1281 39.15ZM13.2469 39.15C15.6094 39.15 17.55 37.2094 17.55 34.8469C17.55 32.4844 15.6094 30.5437 13.2469 30.5437C10.8844 30.5437 8.94375 32.4844 8.94375 34.8469C8.94375 37.2937 10.8844 39.15 13.2469 39.15ZM4.55625 34.0031H7.17188C7.59375 31.05 10.2094 28.7719 13.2469 28.7719C16.2844 28.7719 18.9 31.05 19.3219 34.0031H38.0531C38.475 31.05 41.0906 28.7719 44.1281 28.7719C47.1656 28.7719 49.7812 31.05 50.2031 34.0031H52.1437V29.2781C52.1437 26.7469 50.0344 24.6375 47.5031 24.6375H42.1031C41.7656 24.6375 41.4281 24.4687 41.2594 24.1312C39.9937 21.5156 35.8594 14.85 32.0625 14.85H12.9938C7.7625 14.85 4.64062 19.4906 4.64062 22.0219V28.6875V34.0031H4.55625ZM1.85625 27.2531C1.85625 27.5062 2.025 27.675 2.27813 27.675H2.7V22.8656H2.27813C2.025 22.8656 1.85625 23.0344 1.85625 23.2875V27.2531Z" fill="black"/>
<path id="Vector_4" d="M23.7093 16.7906H29.9531C32.4 16.7906 34.7625 17.9718 36.0281 19.9968L38.1375 23.2031C38.3062 23.4562 38.3062 23.8781 38.1375 24.1312C37.9687 24.4687 37.6312 24.6375 37.2937 24.6375H23.7093C23.2031 24.6375 22.7812 24.2156 22.7812 23.7093V17.7187C22.7812 17.2125 23.2031 16.7906 23.7093 16.7906ZM24.6375 22.7812H35.6062L34.425 21.0093C33.4968 19.575 31.8093 18.6468 29.9531 18.6468H24.6375V22.7812Z" fill="#FEB804"/>
<path id="Vector_5" d="M14.5125 16.7906H19.8281C20.3344 16.7906 20.7562 17.2125 20.7562 17.7187V23.7093C20.7562 24.2156 20.3344 24.6375 19.8281 24.6375H8.09997C7.59372 24.6375 7.17185 24.2156 7.17185 23.7093C7.08747 19.9125 10.3781 16.7906 14.5125 16.7906ZM18.8156 22.7812V18.6468H14.4281C11.7281 18.6468 9.44998 20.4187 9.0281 22.7812H18.8156Z" fill="#FEB804"/>
</g>
</g>
</g>
</svg>
