<svg width="50" height="50" viewBox="0 0 50 50" fill="none" xmlns="http://www.w3.org/2000/svg">
<g id="3586369_discount_price_sale_icon 1">
<g id="Group">
<path id="Vector" d="M32.05 19.0499L16.95 31.0499C16.65 31.2999 16.55 31.7999 16.85 32.0999C17 32.2999 17.2 32.3999 17.45 32.3999C17.6 32.3999 17.8 32.3499 17.9 32.2499L33 20.2499C33.3 19.9999 33.4 19.4999 33.1 19.1999C32.85 18.8499 32.4 18.7999 32.05 19.0499Z" fill="black"/>
<path id="Vector_2" d="M21 24.4C21.2 24.4 21.4 24.4 21.6 24.35C23.65 24.05 25.1 22.1 24.75 20C24.6 19 24.05 18.1 23.25 17.5C22.45 16.9 21.45 16.65 20.45 16.8C19.45 16.95 18.55 17.5 17.95 18.3C17.35 19.1 17.1 20.1 17.25 21.1C17.55 23.05 19.2 24.4 21 24.4ZM20.65 18.35C20.75 18.35 20.9 18.3 21 18.3C22.1 18.3 23.1 19.1 23.25 20.25C23.45 21.5 22.6 22.65 21.35 22.85C20.1 23.05 18.95 22.2 18.75 20.95C18.55 19.7 19.45 18.55 20.65 18.35Z" fill="black"/>
<path id="Vector_3" d="M29 26.8999C26.9 26.8999 25.2 28.5999 25.2 30.6999C25.2 32.7999 26.9 34.4999 29 34.4999C31.1 34.4999 32.8 32.7999 32.8 30.6999C32.75 28.5999 31.05 26.8999 29 26.8999ZM29 32.9499C27.75 32.9499 26.7 31.8999 26.7 30.6499C26.7 29.3999 27.75 28.3499 29 28.3499C30.25 28.3499 31.3 29.3999 31.3 30.6499C31.25 31.9499 30.25 32.9499 29 32.9499Z" fill="black"/>
<path id="Vector_4" d="M47.7 25.15C47.7 25.1 47.75 25 47.75 24.95C47.75 22.8 45.5 21.7 43.55 20.75C42.15 20.0499 40.65 19.2999 40.25 18.4C39.85 17.45 40.4 15.9 40.95 14.45C41.7 12.4 42.45 10.3 41.05 8.89995C39.65 7.49995 37.65 7.99995 35.65 8.44995C34.25 8.74995 32.8 9.09995 31.85 8.69995C30.9 8.29995 30.1 7.04995 29.35 5.84995C28.25 4.14995 27.05 2.19995 24.95 2.19995C22.85 2.19995 21.65 4.14995 20.6 5.89995C19.85 7.14995 19.1 8.39995 18.15 8.79995C17.2 9.19995 15.7 8.84995 14.3 8.49995C12.3 7.99995 10.25 7.49995 8.90001 8.84995C7.50001 10.25 8.20001 12.35 8.85001 14.4C9.35001 15.9 9.80001 17.4 9.40001 18.4C9.00001 19.35 7.60001 20.0499 6.25001 20.75C4.35001 21.75 2.20001 22.85 2.20001 24.95C2.20001 25 2.20001 25.1 2.25001 25.15C2.25001 25.1999 2.20001 25.3 2.20001 25.35C2.20001 27.45 4.35001 28.5999 6.25001 29.5499C7.60001 30.25 9.00001 30.9499 9.40001 31.9C9.80001 32.85 9.30001 34.4 8.85001 35.9C8.20001 37.95 7.50001 40.0499 8.90001 41.45C10.3 42.85 12.35 42.2999 14.3 41.7999C15.7 41.45 17.2 41.0999 18.15 41.5C19.1 41.9 19.85 43.15 20.6 44.4C21.65 46.15 22.85 48.0999 24.95 48.0999C27.05 48.0999 28.3 46.15 29.35 44.45C30.1 43.25 30.9 42 31.85 41.5999C32.85 41.1999 34.25 41.5 35.65 41.8499C37.6 42.2999 39.65 42.8 41.05 41.4C42.45 40 41.7 37.8999 40.95 35.8499C40.4 34.3499 39.85 32.85 40.25 31.9C40.65 30.9499 42.1 30.25 43.55 29.5499C45.5 28.5499 47.75 27.45 47.75 25.35C47.75 25.25 47.7 25.1999 47.7 25.15ZM42.85 28.2C41.2 29.05 39.45 29.9 38.85 31.35C38.2 32.85 38.9 34.65 39.5 36.4C40.1 38.05 40.7 39.6499 39.95 40.3499C39.15 41.1499 37.6 40.8 35.95 40.4C34.3 40 32.65 39.65 31.2 40.25C29.8 40.8499 28.9 42.25 28.05 43.65C27.1 45.15 26.2 46.5999 24.9 46.5999C23.65 46.5999 22.75 45.1499 21.8 43.5999C20.95 42.1499 20.05 40.6999 18.65 40.0999C17.2 39.5 15.5 39.8999 13.85 40.3499C12.2 40.75 10.65 41.15 9.85001 40.4C9.10001 39.65 9.60001 38.05 10.15 36.4C10.7 34.65 11.3 32.85 10.65 31.4C10.05 29.9499 8.40001 29.0999 6.80001 28.2999C5.15001 27.4499 3.60001 26.65 3.60001 25.4C3.60001 25.35 3.60001 25.25 3.55001 25.2C3.55001 25.15 3.60001 25.0499 3.60001 25C3.60001 23.7999 5.15001 23 6.80001 22.1C8.40001 21.3 10.05 20.45 10.65 19C11.25 17.5 10.7 15.7 10.15 14C9.60001 12.3 9.10001 10.7 9.85001 9.99995C10.65 9.19995 12.2 9.59995 13.85 10.05C15.5 10.45 17.2 10.9 18.65 10.3C20.05 9.69995 20.95 8.24995 21.8 6.79995C22.75 5.24995 23.6 3.79995 24.9 3.79995C26.2 3.79995 27.1 5.24995 28.05 6.74995C28.95 8.14995 29.85 9.54995 31.2 10.15C32.65 10.75 34.3 10.35 35.95 9.99995C37.6 9.59995 39.15 9.24995 39.95 10.05C40.7 10.75 40.1 12.35 39.5 14C38.85 15.75 38.2 17.5499 38.85 19.0499C39.45 20.5 41.2 21.35 42.85 22.2C44.6 23.05 46.2 23.9 46.2 25.1C46.2 25.15 46.2 25.25 46.25 25.2999C46.25 25.3499 46.2 25.45 46.2 25.5C46.25 26.5 44.6 27.35 42.85 28.2Z" fill="#FEB804"/>
</g>
</g>
</svg>
