<svg width="57" height="57" viewBox="0 0 57 57" fill="none" xmlns="http://www.w3.org/2000/svg">
<g id="290113_clock_stopwatch_time_timer_watch_icon 1">
<path id="Vector" fill-rule="evenodd" clip-rule="evenodd" d="M44.2113 17.2858C47.6561 21.1258 49.7707 26.1839 49.7707 31.7494C49.7707 43.7273 40.0604 53.4376 28.0825 53.4376C16.1046 53.4376 6.39429 43.7273 6.39429 31.7494C6.39429 21.0053 14.2141 12.1107 24.4678 10.3865V5.24159H22.058C21.3917 5.24159 20.8531 4.70179 20.8531 4.03669C20.8531 3.37158 21.3917 2.83179 22.058 2.83179H34.107C34.7733 2.83179 35.3119 3.37158 35.3119 4.03669C35.3119 4.70179 34.7733 5.24159 34.107 5.24159H31.6972V10.3805C35.8264 11.0805 39.5579 12.9397 42.5473 15.6218L45.3535 12.8156C45.8126 12.3565 46.5572 12.3565 47.0175 12.8156C47.4765 13.2746 47.4765 14.0205 47.0175 14.4795L44.2113 17.2858ZM29.2874 5.24159H26.8776V10.1226C27.2788 10.0997 27.6752 10.0612 28.0825 10.0612C28.4897 10.0612 28.8861 10.0961 29.2874 10.1178V5.24159ZM28.0825 12.471C17.436 12.471 8.80409 21.1017 8.80409 31.7494C8.80409 42.3971 17.436 51.0278 28.0825 51.0278C38.7302 51.0278 47.3609 42.3971 47.3609 31.7494C47.3609 21.1029 38.7302 12.471 28.0825 12.471ZM28.0825 36.569C25.4209 36.569 23.2629 34.411 23.2629 31.7494C23.2629 30.8469 23.5267 30.0119 23.9593 29.2902L17.5818 22.9138C17.1227 22.4548 17.1227 21.7089 17.5818 21.2499C18.042 20.7908 18.7867 20.7908 19.2457 21.2499L25.6233 27.6262C26.3462 27.1936 27.18 26.9298 28.0825 26.9298C30.7441 26.9298 32.9021 29.0877 32.9021 31.7494C32.9021 34.411 30.7441 36.569 28.0825 36.569ZM28.0825 29.3396C26.7523 29.3396 25.6727 30.4192 25.6727 31.7494C25.6727 33.0796 26.7523 34.1592 28.0825 34.1592C29.4127 34.1592 30.4923 33.0796 30.4923 31.7494C30.4923 30.4192 29.4127 29.3396 28.0825 29.3396Z" fill="black"/>
<circle id="Ellipse 4" cx="28.1346" cy="31.7885" r="3.25" fill="white" stroke="#FEB804" stroke-width="3"/>
</g>
</svg>
