<svg width="47" height="47" viewBox="0 0 47 47" fill="none" xmlns="http://www.w3.org/2000/svg">
<g id="5724979_flight_route_tourism_transmit_travel_icon 1" clip-path="url(#clip0_10_342)">
<path id="Vector" d="M46.4984 12.1341C46.1766 11.2872 45.557 10.5866 44.7558 10.1636C43.9546 9.7406 43.0266 9.62422 42.1458 9.83624L39.6173 8.29405C39.1467 8.00906 38.6183 7.83316 38.0708 7.77928C37.5233 7.72539 36.9707 7.7949 36.4536 7.98267L27.2064 11.3476L19.6122 0.618362C19.5192 0.486965 19.3856 0.389772 19.2319 0.341739C19.0783 0.293705 18.9131 0.297493 18.7618 0.352518L14.6273 1.85872C14.5365 1.89154 14.4532 1.94191 14.3819 2.00695C14.3107 2.072 14.253 2.15044 14.212 2.2378C14.1711 2.32516 14.1478 2.41973 14.1435 2.5161C14.1391 2.61247 14.1538 2.70876 14.1866 2.79946L18.4519 14.5326L9.25751 17.8776L4.32031 12.3544C4.22272 12.2457 4.09492 12.1685 3.95324 12.1328C3.81156 12.0971 3.66245 12.1044 3.52498 12.1539L0.761524 13.1586C0.670808 13.1914 0.587448 13.2417 0.516205 13.3068C0.444961 13.3718 0.387231 13.4503 0.346313 13.5376C0.305394 13.625 0.282089 13.7196 0.277728 13.8159C0.273368 13.9123 0.288037 14.0086 0.320899 14.0993L4.34013 25.1391C4.39169 25.2808 4.48559 25.4032 4.60909 25.4896C4.73259 25.5761 4.8797 25.6224 5.03045 25.6224H5.03926L20.6014 25.4314C20.6841 25.4301 20.766 25.415 20.8437 25.3866L22.2222 24.8836L26.2407 35.9256C26.2735 36.0164 26.3239 36.0999 26.389 36.1712C26.4541 36.2425 26.5326 36.3003 26.62 36.3412C26.7075 36.3821 26.8021 36.4054 26.8986 36.4097C26.995 36.414 27.0914 36.3992 27.1821 36.3663L31.3225 34.8586C31.4739 34.8036 31.603 34.7003 31.69 34.5647C31.7769 34.429 31.8168 34.2686 31.8036 34.1081L30.7754 21.7706L44.3026 16.8444C44.7562 16.6792 45.1727 16.4263 45.5284 16.1001C45.8841 15.7738 46.172 15.3806 46.3755 14.943C46.5791 14.5054 46.6945 14.0319 46.7149 13.5497C46.7354 13.0674 46.6605 12.5859 46.4947 12.1326L46.4984 12.1341ZM15.8192 2.98746L18.7376 1.92482L25.7765 11.8683L19.834 14.0303L15.8192 2.98746ZM3.9656 19.8054L1.95341 14.2873L3.55729 13.7042L7.7726 18.4189L3.9656 19.8054ZM27.3701 34.736L22.3463 20.9297L29.0335 18.4953L30.2937 33.6674L27.3701 34.736ZM43.804 15.4667L30.6535 20.2556L30.4178 17.4187C30.4085 17.3061 30.3734 17.1972 30.3152 17.1004C30.257 17.0036 30.1773 16.9215 30.0822 16.8605C29.9871 16.7998 29.8793 16.7617 29.7672 16.7489C29.6551 16.7362 29.5415 16.7493 29.4352 16.7871L21.1544 19.798C21.0636 19.8308 20.9801 19.8812 20.9088 19.9463C20.8375 20.0114 20.7798 20.09 20.7388 20.1774C20.6979 20.2648 20.6746 20.3595 20.6703 20.456C20.666 20.5524 20.6808 20.6488 20.7138 20.7395L21.7184 23.4993L20.456 23.9597L5.54084 24.1426L4.46571 21.1853L36.953 9.36183C37.2637 9.24858 37.5959 9.20641 37.925 9.23844C38.2542 9.27046 38.572 9.37587 38.855 9.54689L39.5586 9.9765L37.4024 10.7608L37.904 12.1414L41.1639 10.9554L41.6603 11.258C41.7536 11.315 41.8585 11.3504 41.9673 11.3618C42.076 11.3731 42.1859 11.3599 42.289 11.3233C42.5609 11.2239 42.8497 11.1789 43.139 11.1911C43.4283 11.2032 43.7123 11.2722 43.9749 11.3942C44.2376 11.5161 44.4736 11.6886 44.6695 11.9017C44.8655 12.1148 45.0176 12.3645 45.117 12.6364C45.2165 12.9083 45.2615 13.1972 45.2493 13.4864C45.2372 13.7757 45.1682 14.0598 45.0462 14.3224C44.9243 14.585 44.7518 14.821 44.5387 15.017C44.3255 15.213 44.0759 15.365 43.804 15.4645V15.4667Z" fill="black"/>
<path id="Vector_2" d="M33.9507 12.0195L32.5711 12.5213L33.0732 13.9016L34.4527 13.3998L33.9507 12.0195Z" fill="black"/>
<path id="Vector_3" d="M31.1902 13.0238L29.8106 13.5256L30.3127 14.9059L31.6922 14.4041L31.1902 13.0238Z" fill="black"/>
<path id="Vector_4" d="M28.4306 14.0292L27.051 14.531L27.5531 15.9113L28.9327 15.4095L28.4306 14.0292Z" fill="black"/>
<path id="Vector_5" d="M25.6702 15.0335L24.2906 15.5353L24.7926 16.9156L26.1722 16.4138L25.6702 15.0335Z" fill="black"/>
<path id="Vector_6" d="M22.9097 16.0384L21.5301 16.5402L22.0321 17.9205L23.4117 17.4187L22.9097 16.0384Z" fill="black"/>
<path id="Vector_7" d="M20.1492 17.0434L18.7696 17.5452L19.2716 18.9255L20.6512 18.4237L20.1492 17.0434Z" fill="black"/>
<path id="Vector_8" d="M17.3887 18.0477L16.0091 18.5495L16.5111 19.9298L17.8907 19.428L17.3887 18.0477Z" fill="black"/>
<path id="Vector_9" d="M14.6289 19.0517L13.2488 19.5544L13.7515 20.9344L15.1316 20.4318L14.6289 19.0517Z" fill="black"/>
<path id="Vector_10" d="M11.8685 20.057L10.4885 20.5596L10.9911 21.9397L12.3712 21.437L11.8685 20.057Z" fill="black"/>
<path id="Vector_11" d="M13.9531 32.3125H18.4945C18.6677 32.8025 19.0086 33.2155 19.4569 33.4784C19.9052 33.7414 20.432 33.8374 20.9442 33.7495C21.4564 33.6616 21.9211 33.3955 22.256 32.9982C22.591 32.6008 22.7748 32.0978 22.7748 31.5781C22.7748 31.0584 22.591 30.5554 22.256 30.1581C21.9211 29.7608 21.4564 29.4946 20.9442 29.4067C20.432 29.3188 19.9052 29.4149 19.4569 29.6778C19.0086 29.9408 18.6677 30.3538 18.4945 30.8438H13.9531C12.7845 30.8438 11.6638 31.308 10.8374 32.1343C10.0111 32.9606 9.54688 34.0814 9.54688 35.25C9.54688 36.4186 10.0111 37.5394 10.8374 38.3657C11.6638 39.192 12.7845 39.6563 13.9531 39.6563H26.4375V38.1875H13.9531C13.1741 38.1875 12.4269 37.878 11.876 37.3271C11.3251 36.7762 11.0156 36.0291 11.0156 35.25C11.0156 34.4709 11.3251 33.7238 11.876 33.1729C12.4269 32.622 13.1741 32.3125 13.9531 32.3125ZM20.5625 30.8438C20.7077 30.8438 20.8497 30.8868 20.9705 30.9675C21.0913 31.0482 21.1854 31.1629 21.241 31.2971C21.2966 31.4313 21.3111 31.5789 21.2828 31.7214C21.2544 31.8639 21.1845 31.9947 21.0818 32.0974C20.9791 32.2001 20.8482 32.2701 20.7058 32.2984C20.5633 32.3267 20.4157 32.3122 20.2815 32.2566C20.1473 32.201 20.0326 32.1069 19.9519 31.9861C19.8712 31.8654 19.8281 31.7234 19.8281 31.5781C19.8281 31.3834 19.9055 31.1966 20.0432 31.0588C20.1809 30.9211 20.3677 30.8438 20.5625 30.8438Z" fill="#FEB804"/>
<path id="Vector_12" d="M29.375 38.1875H27.9062V39.6562H29.375V38.1875Z" fill="black"/>
<path id="Vector_13" d="M37.0859 38.1875H30.8438V39.6562H37.0859C37.5729 39.6562 38.0398 39.8497 38.3841 40.194C38.7284 40.5383 38.9219 41.0053 38.9219 41.4922C38.9219 41.9791 38.7284 42.4461 38.3841 42.7904C38.0398 43.1347 37.5729 43.3281 37.0859 43.3281H13.9531V44.7969H37.0859C37.9624 44.7969 38.803 44.4487 39.4227 43.829C40.0425 43.2092 40.3906 42.3686 40.3906 41.4922C40.3906 40.6157 40.0425 39.7752 39.4227 39.1554C38.803 38.5357 37.9624 38.1875 37.0859 38.1875Z" fill="#FEB804"/>
<path id="Vector_14" d="M3.6719 41.8594C3.26761 41.8577 2.87066 41.9673 2.52451 42.1762C2.17836 42.3851 1.89637 42.6852 1.7094 43.0436C1.52243 43.4021 1.43771 43.8051 1.4645 44.2085C1.49129 44.6119 1.62857 45.0002 1.8613 45.3307C2.09403 45.6613 2.41324 45.9215 2.78398 46.0828C3.15471 46.244 3.56267 46.3002 3.96319 46.245C4.3637 46.1899 4.74132 46.0256 5.0547 45.7702C5.36808 45.5148 5.60513 45.1781 5.7399 44.7969H12.4844V43.3281H5.7399C5.58856 42.9001 5.30865 42.5292 4.93848 42.2663C4.5683 42.0034 4.12594 41.8613 3.6719 41.8594ZM3.6719 44.7969C3.52666 44.7969 3.38467 44.7538 3.2639 44.6731C3.14314 44.5924 3.04901 44.4777 2.99343 44.3436C2.93784 44.2094 2.9233 44.0617 2.95164 43.9192C2.97997 43.7768 3.04992 43.6459 3.15262 43.5432C3.25532 43.4405 3.38618 43.3706 3.52863 43.3423C3.67109 43.3139 3.81874 43.3285 3.95293 43.384C4.08712 43.4396 4.20182 43.5338 4.28251 43.6545C4.36321 43.7753 4.40628 43.9173 4.40628 44.0625C4.40628 44.2573 4.3289 44.4441 4.19118 44.5818C4.05346 44.7195 3.86667 44.7969 3.6719 44.7969Z" fill="#FEB804"/>
</g>
<defs>
<clipPath id="clip0_10_342">
<rect width="47" height="47" fill="white"/>
</clipPath>
</defs>
</svg>
